<?xml version="1.0" encoding="UTF-8"?>
<svg width="792px" height="135px" viewBox="0 0 792 135" version="1.1" xmlns="http://www.w3.org/2000/svg" xmlns:xlink="http://www.w3.org/1999/xlink">
    <!-- Generator: Sketch 47.1 (45422) - http://www.bohemiancoding.com/sketch -->
    <title>carinmed-logo</title>
    <desc>Created with Sketch.</desc>
    <defs></defs>
    <g id="Page-1" stroke="none" stroke-width="1" fill="none" fill-rule="evenodd">
        <g id="carinmed-logo" fill="#08C1EE">
            <path d="M102.01136,102.848406 C103.331249,102.848406 104.471136,103.358743 105.431056,104.379434 L114.970206,114.73639 C109.69065,121.280818 103.196293,126.294135 95.4869414,129.776492 C87.7775894,133.258848 78.5235061,135 67.7244139,135 C58.0652258,135 49.381086,133.348908 41.6717341,130.046673 C33.9623821,126.744439 27.3780343,122.1514 21.9184933,116.267418 C16.4589522,110.383437 12.2743667,103.358789 9.36461129,95.1932641 C6.45485588,87.027739 5,78.1118398 5,68.4452991 C5,58.6586771 6.61983954,49.6977481 9.85956721,41.5622433 C13.0992949,33.4267385 17.6588432,26.4171006 23.538349,20.5331193 C29.4178548,14.6491379 36.452158,10.0711089 44.6414696,6.79889478 C52.8307812,3.52668067 61.8748853,1.89059816 71.7740532,1.89059816 C81.4332413,1.89059816 89.8774048,3.43662109 97.1067971,6.52871331 C104.336189,9.62080554 110.530576,13.7185168 115.690142,18.82197 L107.590863,30.079531 C107.110904,30.8000185 106.495965,31.4304357 105.746028,31.9708013 C104.996091,32.5111669 103.961193,32.7813457 102.641304,32.7813457 C101.26142,32.7813457 99.8515599,32.2409882 98.4116809,31.1602569 C96.9718019,30.0795256 95.1419832,28.908751 92.9221698,27.6478978 C90.7023564,26.3870447 87.8976342,25.2162701 84.5079191,24.1355388 C81.1182041,23.0548075 76.8136305,22.51445 71.5940692,22.51445 C65.4745836,22.51445 59.8501408,23.5801551 54.720572,25.7115973 C49.5910031,27.8430396 45.18144,30.8900556 41.4917501,34.8527369 C37.8020602,38.8154182 34.9223455,43.6336062 32.8525195,49.3074453 C30.7826935,54.9812844 29.747796,61.3605052 29.747796,68.4452991 C29.747796,75.7702554 30.7826935,82.2845656 32.8525195,87.9884251 C34.9223455,93.6922845 37.7270677,98.4954625 41.2667701,102.398103 C44.8064726,106.300744 48.9760596,109.28772 53.7756561,111.359122 C58.5752527,113.430523 63.7347416,114.466209 69.2542776,114.466209 C72.5540002,114.466209 75.5387046,114.286089 78.2084802,113.925846 C80.8782557,113.565602 83.3380121,112.995225 85.587823,112.214696 C87.8376339,111.434168 89.9674229,110.428503 91.9772539,109.19767 C93.987085,107.966837 95.9818874,106.450834 97.961721,104.649615 C98.5616705,104.10925 99.1916081,103.673962 99.8515527,103.343738 C100.511497,103.013515 101.231426,102.848406 102.01136,102.848406 Z M204.332248,133.559032 L194.343137,133.559032 C192.243314,133.559032 190.593477,133.243824 189.393578,132.613397 C188.193679,131.98297 187.293768,130.707126 186.693819,128.785826 L184.713995,122.211411 C182.374192,124.312833 180.079419,126.159054 177.829608,127.750131 C175.579797,129.341207 173.255027,130.677091 170.855229,131.757822 C168.455431,132.838554 165.905683,133.64909 163.20591,134.189456 C160.506137,134.729821 157.506435,135 154.206712,135 C150.30704,135 146.707396,134.474652 143.407674,133.423941 C140.107951,132.373231 137.273232,130.797188 134.903431,128.695766 C132.53363,126.594344 130.688813,123.982616 129.368924,120.860503 C128.049035,117.738391 127.3891,114.105987 127.3891,109.963184 C127.3891,106.480828 128.30401,103.043554 130.133856,99.6512583 C131.963702,96.258963 135.0084,93.196937 139.268042,90.4650885 C143.527684,87.73324 149.197123,85.4667404 156.276528,83.6655216 C163.355932,81.8643028 172.145062,80.8436275 182.644179,80.603465 L182.644179,75.1998357 C182.644179,69.0156513 181.339309,64.4376222 178.729528,61.4656112 C176.119747,58.4936003 172.325123,57.0076171 167.345542,57.0076171 C163.745844,57.0076171 160.746141,57.4278951 158.346343,58.2684639 C155.946545,59.1090327 153.861751,60.0546583 152.0919,61.1053693 C150.322049,62.1560802 148.687211,63.1017059 147.187337,63.9422747 C145.687463,64.7828434 144.037627,65.2031215 142.237778,65.2031215 C140.737904,65.2031215 139.448032,64.8128633 138.368122,64.0323352 C137.288213,63.251807 136.418299,62.2911714 135.758355,61.1503995 L131.708716,54.0356209 C142.327823,44.3090396 155.136554,39.4458218 170.135293,39.4458218 C175.534839,39.4458218 180.349362,40.3314078 184.579007,42.1026062 C188.808651,43.8738047 192.393296,46.3354334 195.333049,49.4875663 C198.272802,52.6396991 200.507581,56.4071919 202.037452,60.7901576 C203.567324,65.1731233 204.332248,69.9763013 204.332248,75.1998357 L204.332248,133.559032 Z M161.136095,119.689717 C163.415903,119.689717 165.515695,119.479578 167.435534,119.059294 C169.355372,118.639009 171.170193,118.008592 172.880049,117.168023 C174.589905,116.327455 176.239742,115.291769 177.829608,114.060936 C179.419474,112.830104 181.024315,111.37414 182.644179,109.693003 L182.644179,94.1125383 C176.164724,94.4127414 170.75026,94.9681089 166.400626,95.7786573 C162.050992,96.5892058 158.556338,97.624891 155.91656,98.8857442 C153.276781,100.146597 151.401967,101.617571 150.292061,103.298708 C149.182154,104.979846 148.627209,106.811057 148.627209,108.792398 C148.627209,112.695039 149.782094,115.486886 152.0919,117.168023 C154.401706,118.849161 157.416407,119.689717 161.136095,119.689717 Z M223.200567,135.559704 L223.200567,43.1576432 L236.249405,43.1576432 C238.529214,43.1576432 240.119056,43.5779213 241.01898,44.41849 C241.918905,45.2590588 242.518845,46.7000122 242.81882,48.7413935 L244.1687,59.908894 C247.468423,54.2050346 251.338039,49.7020552 255.777666,46.3998208 C260.217293,43.0975864 265.1968,41.4464939 270.716336,41.4464939 C275.275952,41.4464939 279.055578,42.4971891 282.055326,44.598611 L279.175582,61.2598014 C278.995597,62.3405326 278.605636,63.1060391 278.005687,63.5563438 C277.405737,64.0066485 276.595817,64.2317975 275.575903,64.2317975 C274.675979,64.2317975 273.4461,64.0216584 271.886232,63.6013741 C270.326363,63.1810897 268.256568,62.9709506 265.676785,62.9709506 C261.057173,62.9709506 257.097565,64.2467948 253.797842,66.7985214 C250.49812,69.350248 247.708396,73.0877209 245.428588,78.0110522 L245.428588,135.559704 L223.200567,135.559704 Z M322.391734,43.1576432 L322.391734,135.559704 L300.163713,135.559704 L300.163713,43.1576432 L322.391734,43.1576432 Z M325.721437,16.2295572 C325.721437,18.1508572 325.331476,19.9520489 324.551541,21.6331865 C323.771607,23.314324 322.736709,24.7852973 321.446818,26.0461504 C320.156926,27.3070035 318.642076,28.3126689 316.902222,29.0631768 C315.162369,29.8136846 313.302553,30.1889329 311.322719,30.1889329 C309.402881,30.1889329 307.588061,29.8136846 305.878204,29.0631768 C304.168348,28.3126689 302.683495,27.3070035 301.423601,26.0461504 C300.163707,24.7852973 299.158806,23.314324 298.408869,21.6331865 C297.658932,19.9520489 297.28397,18.1508572 297.28397,16.2295572 C297.28397,14.2482165 297.658932,12.386985 298.408869,10.6458069 C299.158806,8.90462874 300.163707,7.40363561 301.423601,6.14278247 C302.683495,4.88192932 304.168348,3.87626393 305.878204,3.1257561 C307.588061,2.37524828 309.402881,2 311.322719,2 C313.302553,2 315.162369,2.37524828 316.902222,3.1257561 C318.642076,3.87626393 320.156926,4.88192932 321.446818,6.14278247 C322.736709,7.40363561 323.771607,8.90462874 324.551541,10.6458069 C325.331476,12.386985 325.721437,14.2482165 325.721437,16.2295572 Z M344.499765,135.559704 L344.499765,43.1576432 L358.088554,43.1576432 C360.968312,43.1576432 362.858125,44.508537 363.75805,47.2103652 L365.287913,54.5052647 C367.147757,52.5839647 369.112562,50.8428127 371.182388,49.2817564 C373.252214,47.7207001 375.441997,46.3698063 377.751803,45.2290344 C380.061609,44.0882625 382.536364,43.2176865 385.176142,42.6172803 C387.81592,42.016874 390.695635,41.7166754 393.815373,41.7166754 C398.854949,41.7166754 403.324506,42.5722415 407.224179,44.2833993 C411.123851,45.9945571 414.378528,48.3961461 416.988309,51.4882384 C419.59809,54.5803306 421.577893,58.2727737 422.92778,62.5656784 C424.277666,66.8585832 424.9526,71.5867115 424.9526,76.7502054 L424.9526,135.559704 L402.724579,135.559704 L402.724579,76.7502054 C402.724579,71.1063865 401.419708,66.7384965 398.809928,63.6464043 C396.200147,60.5543121 392.285535,59.0082891 387.065974,59.0082891 C383.226297,59.0082891 379.626653,59.8788652 376.266936,61.6200433 C372.907218,63.3612215 369.727533,65.7327906 366.727785,68.7348219 L366.727785,135.559704 L344.499765,135.559704 Z M505.035468,98.4547831 C505.935392,100.135921 506.715315,101.937112 507.375259,103.858412 C507.735229,102.897762 508.110192,101.952137 508.500159,101.021507 C508.890126,100.090877 509.325083,99.2052913 509.805043,98.3647226 L559.840587,9.83526249 C560.320546,9.05473435 560.800499,8.57441655 561.280458,8.39429468 C561.760418,8.2141728 562.420353,8.12411321 563.260282,8.12411321 L569.649713,8.12411321 L569.649713,135.559704 L561.550434,135.559704 L561.550434,26.9467553 C561.550434,25.385699 561.640426,23.7346066 561.82041,21.9934284 L511.694875,111.063251 C510.854945,112.624308 509.655064,113.404824 508.095195,113.404824 L506.655323,113.404824 C505.155449,113.404824 503.955568,112.624308 503.055644,111.063251 L451.580228,21.9033679 C451.760213,23.6445461 451.850204,25.3256584 451.850204,26.9467553 L451.850204,135.559704 L443.840917,135.559704 L443.840917,8.12411321 L450.140356,8.12411321 C450.980286,8.12411321 451.655219,8.2141728 452.165176,8.39429468 C452.675133,8.57441655 453.170084,9.05473435 453.650044,9.83526249 L505.035468,98.4547831 Z M664.761243,8.12411321 L664.761243,15.7792547 L597.717213,15.7792547 L597.717213,67.2938541 L653.512244,67.2938541 L653.512244,74.7688746 L597.717213,74.7688746 L597.717213,127.904563 L664.761243,127.904563 L664.761243,135.559704 L588.448039,135.559704 L588.448039,8.12411321 L664.761243,8.12411321 Z M791,71.7968785 C791,81.6435411 789.530146,90.4994006 786.590393,98.3647226 C783.65064,106.230045 779.51105,112.924474 774.171499,118.448211 C768.831948,123.971949 762.44258,128.20475 755.003206,131.14674 C747.563831,134.088731 739.314648,135.559704 730.25541,135.559704 L683.819545,135.559704 L683.819545,8.12411321 L730.25541,8.12411321 C739.314648,8.12411321 747.563831,9.59508648 755.003206,12.5370771 C762.44258,15.4790678 768.831948,19.7118684 774.171499,25.235606 C779.51105,30.7593436 783.65064,37.4537729 786.590393,45.3190949 C789.530146,53.1844169 791,62.0102565 791,71.7968785 Z M781.46085,71.7968785 C781.46085,62.9108659 780.230971,54.9856222 777.771178,48.0209096 C775.311385,41.056197 771.846728,35.1723039 767.377104,30.3690538 C762.90748,25.5658038 757.523013,21.9033805 751.223542,19.3816743 C744.924072,16.859968 737.934764,15.5991337 730.25541,15.5991337 L693.08872,15.5991337 L693.08872,128.084684 L730.25541,128.084684 C737.934764,128.084684 744.924072,126.82385 751.223542,124.302143 C757.523013,121.780437 762.90748,118.118014 767.377104,113.314764 C771.846728,108.511514 775.311385,102.627621 777.771178,95.6629079 C780.230971,88.6981953 781.46085,80.7429317 781.46085,71.7968785 Z" id="CarinMED"></path>
        </g>
    </g>
</svg>